<svg width="32" height="32" viewBox="0 0 48 48" fill="none" xmlns="http://www.w3.org/2000/svg">
  <path d="M8 12C8 8.68629 10.6863 6 14 6H34C37.3137 6 40 8.68629 40 12V26C40 29.3137 37.3137 32 34 32H18L8 42V12Z" fill="oklch(57.7% 0.245 27.325)"/>
  <path d="M12 12C12 10.8954 12.8954 10 14 10H34C35.1046 10 36 10.8954 36 12V26C36 27.1046 35.1046 28 34 28H17.4142L12 33.4142V12Z" fill="oklch(65% 0.2 27.325)"/>
  <circle cx="18" cy="19" r="2.5" fill="white" opacity="0.9"/>
  <circle cx="24" cy="19" r="2.5" fill="white" opacity="0.9"/>
  <circle cx="30" cy="19" r="2.5" fill="white" opacity="0.9"/>
  <path d="M20.5 19H21.5M26.5 19H27.5" stroke="white" stroke-width="1.5" stroke-linecap="round" opacity="0.7"/>
  <circle cx="36" cy="10" r="4" fill="oklch(65% 0.15 25)" stroke="white" stroke-width="1.5"/>
  <circle cx="36" cy="10" r="1.5" fill="white"/>
</svg>
